# xmcd
#
# Track frame offsets:
#	150
#	43408
#	82485
#	130465
#
# Disc length: 2034 seconds
#
# Revision: 1
# Processed by: cddbd v1.5.2PL0 Copyright (c) Steve Scherf et al.
# Submitted via: audiograbber 1.83.01
#
DISCID=3d07f004
DTITLE=Grateful Dead - 95-03-26 The Omni, Atlanta GA
DYEAR=1900
DGENRE=
TTITLE0=Space
TTITLE1=The Other One
TTITLE2=Morning Dew
TTITLE3=Johnny B Goode
EXTD=
EXTT0=
EXTT1=
EXTT2=
EXTT3=
PLAYORDER=
